<?xml version="1.0" standalone="no"?>
<!DOCTYPE svg PUBLIC "-//W3C//DTD SVG 20010904//EN"
 "http://www.w3.org/TR/2001/REC-SVG-20010904/DTD/svg10.dtd">
<svg version="1.0" xmlns="http://www.w3.org/2000/svg"
 width="575.000000pt" height="301.000000pt" viewBox="0 0 575.000000 301.000000"
 preserveAspectRatio="xMidYMid meet">

<g transform="translate(0.000000,301.000000) scale(0.100000,-0.100000)"
fill="#000000" stroke="none">
<path d="M4380 2550 c-13 -24 -4 -63 20 -85 10 -9 29 -42 41 -73 12 -31 29
-66 36 -78 7 -11 21 -45 32 -75 28 -82 43 -109 58 -109 10 0 12 -6 8 -19 -3
-10 3 -39 14 -62 90 -202 99 -238 81 -347 -36 -229 -132 -388 -255 -422 -107
-30 -160 -11 -203 71 -22 41 -23 51 -17 160 5 98 4 118 -9 129 -31 25 -43 -3
-50 -126 -5 -83 -14 -138 -32 -192 -28 -83 -110 -209 -150 -230 -23 -12 -27
-11 -55 19 -17 18 -36 44 -44 59 -22 43 -57 189 -65 273 -8 82 -21 110 -42 89
-19 -19 -18 -99 2 -198 22 -107 43 -164 82 -221 36 -54 64 -73 106 -73 46 0
74 22 120 93 36 56 53 89 83 166 l10 24 37 -40 c21 -22 59 -48 85 -58 40 -15
53 -16 94 -5 116 29 192 95 258 224 38 75 49 116 61 229 8 66 20 80 34 40 24
-65 56 -116 80 -125 23 -9 24 -10 7 -23 -16 -12 -17 -16 -3 -46 8 -19 29 -74
47 -124 40 -116 43 -120 65 -120 16 0 19 7 17 50 -2 73 -12 115 -27 115 -7 0
-26 32 -41 70 -15 39 -32 70 -37 70 -4 0 -8 9 -8 20 0 10 -23 77 -52 147 -51
126 -52 130 -59 266 -9 169 -22 234 -62 316 -45 92 -196 241 -244 241 -7 0
-17 -9 -23 -20z m201 -182 c53 -58 76 -111 94 -212 17 -98 20 -195 6 -180 -5
5 -30 59 -56 119 -26 61 -64 148 -85 195 -21 47 -41 95 -45 108 -6 21 -4 22
22 17 15 -4 44 -25 64 -47z m-116 22 c3 -5 1 -10 -4 -10 -6 0 -11 5 -11 10 0
6 2 10 4 10 3 0 8 -4 11 -10z"/>
<path d="M3306 2005 c-72 -73 -96 -125 -89 -187 3 -27 9 -48 13 -48 11 0 21
30 15 40 -3 5 8 23 24 40 28 31 29 31 36 11 11 -35 34 -51 73 -51 43 0 95 29
113 62 27 51 -1 147 -52 173 -50 27 -74 19 -133 -40z m116 3 c23 -18 39 -84
28 -114 -11 -28 -50 -40 -79 -24 -24 12 -27 39 -8 59 10 10 9 15 -5 25 -25 18
-22 45 5 56 31 12 41 12 59 -2z"/>
<path d="M2781 1333 c-65 -69 -111 -148 -111 -194 0 -34 35 -78 76 -95 41 -17
103 -18 261 -2 132 12 242 1 280 -28 17 -13 15 -17 -36 -65 -87 -81 -290 -210
-329 -208 -11 0 -12 3 -4 6 6 2 12 9 12 14 0 6 -7 6 -19 0 -10 -6 -21 -8 -23
-5 -3 2 -17 -11 -32 -30 -64 -84 -9 -80 159 13 108 59 231 145 283 197 46 47
54 81 25 107 -38 33 -102 40 -326 38 -185 -2 -223 0 -243 14 -55 36 -8 159 80
207 43 24 61 22 74 -7 14 -30 28 -32 42 -6 14 28 12 63 -6 89 -11 17 -25 22
-57 22 -38 0 -47 -5 -106 -67z"/>
<path d="M3386 1393 c-17 -18 -46 -99 -51 -146 -6 -51 -6 -52 12 -31 10 12 27
37 37 55 l19 34 17 -95 c10 -52 25 -119 34 -147 54 -175 57 -207 25 -247 -27
-35 -13 -56 25 -38 52 23 59 134 16 257 -12 33 -32 107 -46 165 -39 160 -64
216 -88 193z"/>
<path d="M1895 1115 c-3 -8 -7 -22 -10 -31 -6 -18 14 -103 28 -121 17 -22 23
-14 19 22 -5 41 16 49 34 12 6 -12 22 -42 35 -67 21 -41 23 -58 22 -181 0 -94
-5 -145 -14 -164 -23 -46 -62 -68 -126 -72 -76 -5 -120 17 -152 76 -22 40 -24
56 -23 138 1 52 3 97 3 101 6 35 -24 45 -40 13 -6 -10 -15 -55 -20 -99 -5 -45
-18 -100 -30 -124 -76 -156 -234 -254 -299 -185 -34 36 -54 128 -54 244 0 107
13 167 39 182 14 7 14 15 3 60 -9 37 -17 51 -29 51 -39 0 -49 -30 -60 -180
-16 -224 8 -344 82 -406 32 -27 57 -29 124 -13 54 14 144 93 193 169 31 48 60
65 60 36 0 -15 65 -77 100 -96 37 -20 132 -15 176 9 65 34 83 54 104 113 47
134 2 365 -97 496 -25 34 -60 43 -68 17z"/>
<path d="M2361 1082 c-5 -10 -28 -27 -50 -37 -34 -15 -46 -29 -75 -89 -95
-196 -90 -392 11 -412 58 -11 107 30 151 125 21 46 27 78 33 176 4 66 8 121 8
123 3 10 21 -12 21 -25 0 -18 105 -146 188 -226 72 -71 95 -73 100 -9 3 40 2
42 -21 37 -19 -5 -35 6 -93 67 -38 40 -106 121 -152 181 -45 59 -89 107 -97
107 -8 0 -19 -8 -24 -18z m17 -132 c15 -147 15 -147 -13 -229 -20 -60 -35 -88
-61 -111 -43 -37 -50 -37 -69 0 -53 102 33 377 115 368 18 -2 26 -10 28 -28z"/>
</g>
</svg>
